Patient4_TMGait_0pt5_02_left_02_EMG.mot
version=1
nRows=33
nColumns=33
inDegrees=no
endheader
time	1LAddLong	2LGlutMax	3LGlutMed	4LIliopsoas	5LSemiMemb	6LBicFemLong	7LRecFem	8LVastMed	9LVastLat	10LGasMed	11LTibAnt	12lTibPost	13LPeroneusLong	14LSol	15LExtDigLong	16LFlexDigLong	17RAddLong	18RGlutMax	19RGlutMed	20RIliopsoas	21RSemiMemb	22RBicFemLong	23RRecFem	24RVastMed	25RVastLat	26RGasMed	27RTibAnt	28RTibPost	29RPeroneusLong	30RSol	31RExtDigLong	32RFlexDigLong
1.89	0.019531	0.23514	-0.040894	0.006104	0.001984	0.002441	0.071869	0.003967	0.014648	0.04303	-0.024567	0.000305	0.018921	-0.041046	0.06012	0.012207	-0.034332	-0.001526	0.31326	0.019684	-0.046387	-0.016327	0.11734	-0.11444	0.008698	-0.009766	-0.48706	0.005951	0.29633	0.23453	-0.001831	-0.00824
1.891	0.025482	0.21088	-0.0354	-0.010834	-0.001373	0.020752	0.07019	-0.003815	-0.005798	0.019226	0.12711	0.00885	0.033569	-0.057983	0.094757	-0.00412	0.023804	-0.038757	0.74616	-0.10422	-0.02182	-0.079041	0.19608	-0.094452	0.023804	-0.00412	-0.19836	-0.004425	0.019989	0.18784	-0.002899	-0.001831
1.892	0.018921	0.18158	-0.021362	-0.008545	0.001068	0.003967	0.050507	-0.00412	0.005951	-0.013733	0.14389	0.00473	0.038757	-0.06958	-0.085297	0.000305	0.048065	-0.10315	0.59906	-0.019226	0.020905	-0.02533	0.22842	-0.11322	0.045929	0.007019	-0.049438	-0.002747	-0.12711	0.14801	0.002747	0.000153
1.893	0.010223	0.18997	-0.015259	0.00473	0.000916	-0.009766	0.048981	-0.005646	0.023804	-0.035553	0.059052	0.003967	0.098114	-0.032959	0.032501	0.00473	0.016174	-0.083466	-0.073242	0.01297	0.031128	-0.058594	0.056763	0.00412	0.054779	0.006714	0.01358	-0.003967	-0.14069	0.085907	-0.00412	-0.003357
1.894	0.019073	0.1799	-0.013428	0.010223	0.019531	-0.006866	0.019073	-0.000763	0.033569	-0.1207	-0.10605	0.009918	0.15457	0.015411	0.18677	0.004578	-0.028229	-0.00946	0.30411	-0.038452	0.038452	-0.14008	-0.27161	0.10529	-0.029144	0.012665	0.043182	-0.007019	-0.15259	0.075073	0.001526	-0.008392
1.895	0.014496	0.20325	-0.033722	0.017853	0.015411	-0.011902	0.023804	0.006104	0.034943	-0.11673	-0.033722	0.007019	0.13306	-0.027771	0.35751	0.005493	-0.041656	0.005341	0.56671	-0.025635	-0.14297	-0.1976	-0.22354	0.001373	-0.044708	0.007629	0.052185	-0.002899	-0.21011	0.11063	-0.000458	-0.007172
1.896	0.013885	0.2121	-0.043488	0.005188	0.01297	-0.011444	0.015869	0	0.037384	-0.079803	-0.066071	0.00473	0.15625	-0.044861	-0.076752	0.005188	-0.024261	-0.00473	0.10941	0.00412	-0.046234	-0.057068	-0.012665	-0.16052	-0.023041	-0.007019	0.060577	-0.002747	-0.22415	0.1503	-0.003357	-0.009308
1.897	0.005951	0.15579	-0.039673	0.009155	-0.015564	-0.03479	0.032196	0.00473	0.05188	-0.0354	0.000305	0.009918	0.14114	-0.053101	-0.068054	0.010376	-0.009766	-0.051727	0.1416	-0.024872	0.14374	0.065155	0.21072	-0.18631	-0.048065	-0.019226	0.10178	-0.001526	-0.11261	0.14999	-0.005341	-0.011902
1.898	0.001221	0.18753	-0.045929	0.011139	-0.016937	-0.036469	0.033112	0.00473	0.067902	0.016632	0.11887	0.018463	0.06546	-0.027161	-0.60349	-0.000916	-0.008698	-0.030823	0.3421	-0.061798	0.11841	0.032806	0.13626	-0.16235	-0.016174	-0.013123	0.093536	-0.006256	-0.14694	0.18951	-0.004425	-0.00946
1.899	0.000458	0.1738	-0.074615	0.01358	0.014191	-0.024567	0.036774	0.001678	0.07782	0.038147	0.045624	0.00473	0.05188	-0.015717	-0.17029	-0.005951	-0.011139	0.018311	0.28519	-0.041046	0.018463	0.065308	0.10819	-0.083923	-0.04425	-0.013123	0.090942	-0.002747	-0.32944	0.18662	-0.004578	-0.002899
1.9	0.00061	0.19333	-0.085602	0.003967	0.021362	-0.030365	0.010071	0.002747	0.075684	0.009613	-0.01236	-0.000305	0.043488	-0.031738	-0.1767	-0.00412	-0.003967	-0.041046	0.20096	-0.031586	-0.012817	0.037689	0.14191	-0.049591	-0.067749	-0.019836	0.048218	-0.001221	-0.26886	0.14786	-0.00351	-0.005341
1.901	0.00412	0.20645	-0.079803	0.00351	-0.02121	-0.038452	0.004883	0.004272	0.083771	0.029144	-0.034485	0.008087	0.032043	-0.039825	-0.16876	0	-0.001678	0.011749	0.038605	-0.056	-0.011902	-0.013123	0.050812	-0.091553	-0.02243	-0.021973	0.05661	-0.001984	-0.070953	0.11383	-0.001526	-0.003204
1.902	0.011292	0.19989	-0.071259	0.009308	0.014191	-0.06012	0.014038	-0.008545	0.095825	0.061035	-0.019073	0.010529	0.020447	-0.044861	-0.12177	0.000916	0.005341	0.033569	-0.00351	-0.055389	0.023804	-0.037231	-0.044098	0.028992	0.010986	-0.020447	0.077209	-0.001526	-0.14313	0.009918	-0.007935	-0.002441
1.903	0.011292	0.22675	-0.036469	0.008392	0.010986	-0.064087	0.008392	-0.006256	0.10681	0.052643	-0.011597	0.006104	0.05661	-0.062103	-0.030823	0.007172	0.010071	0.052032	-0.031281	-0.03891	0.039673	-0.059509	0.098877	0.028992	-0.002289	-0.011902	0.103	-0.002289	-0.37949	-0.12665	-0.003204	-0.00473
1.904	0.011749	0.2002	-0.029755	0.006409	-0.017548	-0.063934	0.006561	-0.004883	0.11383	0.071564	-0.017548	-0.000153	0.11017	-0.055542	0.0177	0.011139	0.008392	0.010376	-0.045471	0.059967	-0.018005	-0.053101	0.12283	0.043488	-0.045471	-0.016174	0.11368	-0.001984	-0.19989	-0.11765	0.000153	-0.003662
1.905	0.012054	0.21805	-0.05127	0.00946	0.017242	-0.03418	0.013428	0.001831	0.11307	0.046234	-0.064087	0.006256	0.11108	-0.038452	0.035858	0.007782	0.012207	0.011292	0.026093	0.09201	-0.069122	0.000153	0.043182	-0.027313	0.006714	-0.011597	0.11337	-0.002136	0.27374	-0.08194	-0.005341	-0.000916
1.906	0.006104	0.21912	-0.067749	0.005341	-0.010986	-0.005341	-0.009613	-0.001678	0.11902	0.034332	0.022278	0.007172	0.072327	-0.011902	0.076447	-0.000763	0.002899	-0.022278	-0.029602	0.18402	-0.033875	0.003204	-0.18082	-0.13672	0.11581	-0.012054	0.036926	-0.001526	1.057	-0.18601	-0.003815	-0.002441
1.907	0.006256	0.25085	-0.068207	0.001373	-0.020599	-0.015259	-0.001526	-0.006104	0.13473	0.004425	0.045166	0.002594	0.041504	-0.021362	0.45029	0.009613	0.012817	0.023041	-0.1796	0.13779	0.057526	0.036316	-0.071259	-0.096893	0.12421	0.000305	0.079803	-0.002747	0.53375	-0.24338	-0.004425	0.001221
1.908	0.005188	0.21805	-0.069427	0.005493	-0.047913	-0.028381	0.005188	-0.001221	0.1384	0.00412	0.009155	0.002747	0.018158	-0.058289	0.036163	0.007477	0.03006	0.004883	-0.073853	0.022583	0.067444	0.1152	0.068512	-0.033722	0.039673	-0.003815	0.10895	-0.002594	0.24704	-0.1471	-0.005951	-0.001984
1.909	0.007172	0.24216	-0.062714	0.00473	-0.058136	-0.07019	-0.00412	-0.004272	0.13382	-0.008392	-0.019073	0.006104	0.032196	-0.010376	0.26642	0.00824	0.028534	-0.009918	0.18021	-0.002899	0.06012	0.098572	0.11002	-0.000305	-0.005493	0.002747	0.068665	-0.002899	-0.50903	-0.13718	-0.005341	0.002289
1.91	0.007477	0.20172	-0.056152	0.007782	0.034943	-0.070801	-0.007629	-0.005035	0.14236	-0.00885	0.027618	0.004272	0.041656	-0.00351	-0.14526	0.002747	0.02533	-0.018158	0.40649	-0.044556	-0.026093	-0.019989	0.12299	-0.000458	-0.031433	0.006256	-0.054169	-0.007629	-0.50354	-0.23239	-0.003052	-0.003815
1.911	0.002136	0.15778	-0.074158	0.005188	0.049438	-0.057831	0.018768	-0.001068	0.12833	-0.029907	0.036469	0.001678	0.067291	0.010071	-0.17059	0.002289	0.022125	-0.03418	0.052795	0.10727	0.097809	-0.052795	0.1091	0.000153	0.1387	0.004578	-0.079346	-0.001526	-0.020447	-0.18829	-0.003815	-0.002289
1.912	0.010834	0.15823	-0.083313	-0.001221	0.027313	-0.061951	0.005188	-0.013123	0.13672	-0.049744	0.03891	0.001373	0.087433	0.019226	-0.061188	0.003815	0.010071	-0.036774	-0.13886	0.092926	0.16953	0.010071	0.071869	-0.032196	0.5159	-0.000763	0.045929	-0.003662	-0.066833	-0.1619	-0.005035	-0.005951
1.913	0.001221	0.16129	-0.097198	0.001678	0.046997	-0.040741	0.006409	-0.007172	0.13351	-0.022583	0.045624	0.003204	0.074921	-0.019379	-0.13748	0.00412	0.005493	-0.004578	0.13031	0.038452	0.13092	0.074158	0.058441	0.084076	0.49835	0.005188	0.093231	-0.005188	0.072327	-0.11108	-0.003052	-0.005188
1.914	-0.003357	0.15793	-0.073547	0.00885	0.000458	-0.016785	0.005646	0.000305	0.13001	-0.009613	0.003052	0.002136	0.068054	-0.032196	-0.1149	0.006714	-0.028534	0.020905	0.11826	-0.07431	-0.16953	0.13245	-0.02655	0.1535	0.34546	0.007629	0.10498	-0.005341	-0.27161	-0.098114	-0.002289	-0.010681
1.915	0.001678	0.14969	-0.022888	0.011139	-0.084534	-0.018158	-0.005341	0.000763	0.13763	-0.016632	-0.021667	0.010376	0.057831	-0.045013	-0.018158	-0.003967	-0.031281	-0.009766	-0.090637	-0.074463	-0.24643	0.07843	0.02121	0.20462	0.14069	0.006714	0.054779	-0.01358	-0.04837	-0.080872	-0.006714	-0.011292
1.916	-0.002899	0.13321	0.028076	0.009766	-0.041199	-0.019836	0.015869	0.004578	0.12863	-0.011902	0.008392	-0.000458	0.05661	-0.10239	0.064697	-0.00351	-0.026093	-0.001831	0.044403	-0.010986	0.014343	-0.011444	0.019836	0.066833	-0.13031	-0.009613	0.06485	-0.00412	-0.17975	-0.090485	-0.007782	-0.009155
1.917	0.007477	0.1297	0.024719	-0.00473	0.021515	-0.046997	0.01358	-0.005493	0.12283	-0.005341	0.000305	-0.001831	0.063629	-0.15015	0.074921	0.005188	-0.041809	-0.057068	-0.17624	0.044403	0.21561	-0.017242	-0.22217	0.038605	-0.19836	-0.024109	0.093689	-0.002747	-0.52383	-0.094299	-0.003357	-0.006714
1.918	0.01358	0.11734	0.005798	0.007782	0.056915	-0.076599	0.007629	0.000916	0.12726	0.001526	0.003967	0.005493	0.069733	-0.11093	0.07309	-0.004883	-0.028534	-0.067596	-0.3273	0.073395	0.16251	-0.004425	-0.078278	0.009308	-0.51712	-0.024414	0.11169	-0.01236	-0.072479	-0.062866	-0.00351	-0.001373
1.919	0.00946	0.11505	-0.010529	0.019684	0.065918	-0.029144	0.016174	-0.001678	0.13458	-0.033875	0.010071	0.000305	0.071564	-0.08728	0.050049	-0.005798	-0.005951	-0.10376	-0.032959	0.033417	0.13443	-0.088501	0.17288	-0.29846	-0.68375	-0.013123	0.074158	-0.013885	0.75974	-0.050201	0.001678	0.006409
1.92	0.009766	0.10666	-0.029449	0.00351	0.043335	-0.010834	0.016632	-0.012665	0.11856	-0.039215	0.003815	0.000305	0.071564	-0.078278	0.030365	0.004272	0.034332	-0.11246	0.26291	0.048981	0.12985	-0.13214	0.4187	-0.36941	-0.61478	-0.013428	-0.068817	-0.007629	0.69855	-0.042267	-0.005493	-0.002289
1.921	0.011292	0.13046	-0.022278	-0.000763	0.025177	0.003052	0.009766	0	0.11719	-0.029907	0.011139	0.002594	0.068817	-0.073547	0.032654	-0.004272	0.037842	-0.15839	0.36682	0.003967	0.039673	-0.080109	0.25391	-0.24719	-0.37918	-0.024872	-0.10346	-0.013123	-0.35538	0.05127	-0.003357	0.002747
1.922	0.003052	0.11871	-0.034332	-0.013885	0.02594	0.003662	0.019226	-0.012207	0.11841	-0.037537	-0.003204	0.003052	0.081024	-0.04715	0.037842	0.005341	0.027008	-0.17303	-0.12863	-0.079041	-0.081177	-0.030518	-0.1619	-0.078125	-0.15976	-0.058594	-0.082397	-0.009918	0.00946	0.049744	-0.00412	0.002136
